<svg width="18" height="24" viewBox="0 0 18 24" fill="none" xmlns="http://www.w3.org/2000/svg">
<path d="M1 6.56815e-06C1.553 6.56815e-06 2 0.448007 2 1.00001V8.48201L11.637 0.783007C12.875 -0.125993 14.435 -0.255993 15.81 0.440007C17.182 1.13601 18 2.46901 18 4.00701V20C18 21.538 17.182 22.872 15.809 23.568C15.232 23.86 14.62 24.008 13.992 24.008C13.149 24.008 12.335 23.737 11.604 23.199L2 15.516V22.999C2 23.551 1.553 23.999 1 23.999C0.447001 23.999 0 23.551 0 22.999V1.00001C0 0.448007 0.447001 6.56815e-06 1 6.56815e-06ZM2.851 13.637L12.821 21.613C13.439 22.066 14.22 22.131 14.906 21.783C15.601 21.43 16.001 20.781 16.001 20V4.00701C16.001 3.22701 15.602 2.57701 14.907 2.22501C14.604 2.07201 14.289 1.99601 13.981 1.99601C13.58 1.99601 13.19 2.12301 12.853 2.37001L2.817 10.388C2.298 10.768 2.001 11.355 2.001 11.999C2.001 12.643 2.299 13.23 2.852 13.636L2.851 13.637Z" fill="white"/>
</svg>
