<svg width="10" height="20" viewBox="0 0 10 20" fill="none" xmlns="http://www.w3.org/2000/svg">
<path d="M9.93972 1.25199C9.93943 1.58377 9.8074 1.90186 9.57264 2.13633L3.17204 8.53693C2.97831 8.73061 2.82463 8.96056 2.71977 9.21365C2.61492 9.46673 2.56096 9.73799 2.56096 10.0119C2.56096 10.2859 2.61492 10.5571 2.71977 10.8102C2.82463 11.0633 2.97831 11.2933 3.17204 11.4869L9.5643 17.8792C9.79226 18.1152 9.91839 18.4313 9.91554 18.7595C9.91269 19.0876 9.78108 19.4014 9.54905 19.6335C9.31703 19.8655 9.00316 19.9971 8.67504 20C8.34692 20.0028 8.03081 19.8767 7.79479 19.6487L1.40253 13.2615C0.543026 12.4003 0.0603027 11.2332 0.0603027 10.0165C0.0603027 8.7998 0.543026 7.63279 1.40253 6.77159L7.80313 0.366817C7.97815 0.191688 8.20118 0.0724106 8.44401 0.0240773C8.68683 -0.024256 8.93854 0.000527255 9.16728 0.0952911C9.39602 0.190055 9.5915 0.35054 9.729 0.55644C9.8665 0.762339 9.93984 1.0044 9.93972 1.25199Z" fill="white"/>
</svg>
