<svg width="26" height="26" viewBox="0 0 26 26" fill="none" xmlns="http://www.w3.org/2000/svg">
<path d="M22.9583 11.6875L21.5416 10.0417C21.2708 9.72916 21.052 9.14583 21.052 8.72916V6.95833C21.052 5.85416 20.1458 4.94791 19.0416 4.94791H17.2708C16.8645 4.94791 16.2708 4.72916 15.9583 4.45833L14.3125 3.04166C13.5937 2.42708 12.4166 2.42708 11.6875 3.04166L10.052 4.46875C9.73954 4.72916 9.14579 4.94791 8.73954 4.94791H6.93746C5.83329 4.94791 4.92704 5.85416 4.92704 6.95833V8.73958C4.92704 9.14583 4.70829 9.72916 4.44788 10.0417L3.04163 11.6979C2.43746 12.4167 2.43746 13.5833 3.04163 14.3021L4.44788 15.9583C4.70829 16.2708 4.92704 16.8542 4.92704 17.2604V19.0417C4.92704 20.1458 5.83329 21.0521 6.93746 21.0521H8.73954C9.14579 21.0521 9.73954 21.2708 10.052 21.5417L11.6979 22.9583C12.4166 23.5729 13.5937 23.5729 14.3229 22.9583L15.9687 21.5417C16.2812 21.2708 16.8645 21.0521 17.2812 21.0521H19.052C20.1562 21.0521 21.0625 20.1458 21.0625 19.0417V17.2708C21.0625 16.8646 21.2812 16.2708 21.552 15.9583L22.9687 14.3125C23.5729 13.5937 23.5729 12.4062 22.9583 11.6875ZM17.3333 11.0312L12.302 16.0625C12.1562 16.2083 11.9583 16.2917 11.75 16.2917C11.5416 16.2917 11.3437 16.2083 11.1979 16.0625L8.67704 13.5417C8.37496 13.2396 8.37496 12.7396 8.67704 12.4375C8.97913 12.1354 9.47913 12.1354 9.78121 12.4375L11.75 14.4062L16.2291 9.92708C16.5312 9.625 17.0312 9.625 17.3333 9.92708C17.6354 10.2292 17.6354 10.7292 17.3333 11.0312Z" fill="url(#paint0_linear_103_11)"/>
<defs>
<linearGradient id="paint0_linear_103_11" x1="13.0041" y1="2.58125" x2="13.0041" y2="23.4198" gradientUnits="userSpaceOnUse">
<stop stop-color="#138BD7"/>
<stop offset="1" stop-color="#62AAFB"/>
</linearGradient>
</defs>
</svg>
